# xmcd
#
# Track frame offsets:
#	182
#	12065
#	26402
#	40532
#	51807
#	65712
#	78275
#	90200
#	103950
#	116460
#	130245
#	145037
#	159220
#	173407
#	186977
#	200900
#	214795
#	226722
#	239770
#	251942
#	265012
#	278775
#	290342
#	300512
#
# Disc length: 4165 seconds
#
# Revision: 1
# Processed by: cddbd v1.5.1PL0 Copyright (c) Steve Scherf et al.
# Submitted via: EasyCDDAExtractor 6.0.0.1
#
DISCID=44104318
DTITLE=Billie Holiday - Mastertakes' Collection 1937 Vol.3
DYEAR=1937
DGENRE=Blues
TTITLE0=Sentimental And Melancholy (Whiting-Mercer)
TTITLE1=My Last Affair (H. Johnson)
TTITLE2=Carelessly (Kenny-Ellis)
TTITLE3=How Could You (Dubin-Warren)
TTITLE4=Moanin' Low (Dietz-Rainger)
TTITLE5=Where Ie The Sun (Redmond-David)
TTITLE6=Let's Call The Whole Thing Off (Gershwin)
TTITLE7=They Can't Take That Away From Me (Gershwin)
TTITLE8=I Don't Know If I Am Comin' Or Goin' (Stevenson)
TTITLE9=Sun Showers (Brown-Freed)
TTITLE10=Yours And Mine (Brown-Freed)
TTITLE11=I'll Get By (Turk-Ahlert)
TTITLE12=Mean To Me (Turk-Ahlert)
TTITLE13=Foolin' Myself (Tinturin-Lawrence)
TTITLE14=Easy Living (Robin Rainger)
TTITLE15=I'll Never Be The Same (Maineck-Signorelli-Kahn)
TTITLE16=Me, Myself And I (Gordon-Roberts-Kaufman)
TTITLE17=A Sailboat In The Moonlight (Lombardo-Loeb)
TTITLE18=Born To Love (G. Hamilton)
TTITLE19=Without Your Love (Lange-Stryker)
TTITLE20=Getting Some Fun Out Of Life (Leslie-Burke)
TTITLE21=Who Wants Love (Waxman-Kahn)
TTITLE22=Tav'lin" All Alone (J.C. Johnson)
TTITLE23=He's Funny That Way (Whiting-Moret)
EXTD=
EXTT0=sentimental and
EXTT1=
EXTT2=
EXTT3=
EXTT4=
EXTT5=
EXTT6=
EXTT7=
EXTT8=
EXTT9=
EXTT10=
EXTT11=
EXTT12=
EXTT13=
EXTT14=
EXTT15=
EXTT16=
EXTT17=
EXTT18=
EXTT19=
EXTT20=
EXTT21=
EXTT22=
EXTT23=
PLAYORDER=
